<svg width="575" height="163" viewBox="0 0 575 163" fill="none" xmlns="http://www.w3.org/2000/svg">
<path d="M0 6C0 2.68629 2.68629 0 6 0H533C536.314 0 539 2.68629 539 6V96.7792C539 97.9037 539.316 99.0056 539.912 99.9592L573.428 153.585C576.315 158.204 572.05 163.97 566.788 162.561L490.763 142.204C490.256 142.069 489.735 142 489.211 142H5.99999C2.68628 142 0 139.314 0 136V6Z" fill="#09040A"/>
<path d="M315.571 102.341C313.866 102.341 312.389 101.966 311.139 101.216C309.889 100.466 308.92 99.4167 308.23 98.0682C307.548 96.7198 307.207 95.144 307.207 93.341C307.207 91.5379 307.548 89.9584 308.23 88.6023C308.92 87.2463 309.889 86.1932 311.139 85.4432C312.389 84.6932 313.866 84.3182 315.571 84.3182C317.276 84.3182 318.753 84.6932 320.003 85.4432C321.253 86.1932 322.219 87.2463 322.901 88.6023C323.59 89.9584 323.935 91.5379 323.935 93.341C323.935 95.144 323.59 96.7198 322.901 98.0682C322.219 99.4167 321.253 100.466 320.003 101.216C318.753 101.966 317.276 102.341 315.571 102.341ZM315.594 99.0455C316.518 99.0455 317.291 98.7917 317.912 98.2841C318.533 97.769 318.995 97.0796 319.298 96.216C319.609 95.3523 319.764 94.3902 319.764 93.3296C319.764 92.2614 319.609 91.2955 319.298 90.4319C318.995 89.5607 318.533 88.8675 317.912 88.3523C317.291 87.8372 316.518 87.5796 315.594 87.5796C314.647 87.5796 313.859 87.8372 313.23 88.3523C312.609 88.8675 312.143 89.5607 311.832 90.4319C311.529 91.2955 311.378 92.2614 311.378 93.3296C311.378 94.3902 311.529 95.3523 311.832 96.216C312.143 97.0796 312.609 97.769 313.23 98.2841C313.859 98.7917 314.647 99.0455 315.594 99.0455Z" fill="white"/>
<path d="M304.704 84.5455V87.7273H294.67V84.5455H304.704ZM297.148 80.3636H301.261V96.75C301.261 97.303 301.345 97.7273 301.511 98.0227C301.686 98.3106 301.913 98.5076 302.193 98.6137C302.473 98.7197 302.784 98.7727 303.125 98.7727C303.383 98.7727 303.617 98.7538 303.829 98.7159C304.049 98.678 304.216 98.644 304.329 98.6137L305.023 101.83C304.803 101.905 304.489 101.989 304.079 102.08C303.678 102.17 303.186 102.223 302.602 102.239C301.572 102.269 300.644 102.114 299.818 101.773C298.992 101.424 298.337 100.886 297.852 100.159C297.375 99.4318 297.14 98.5227 297.148 97.4318V80.3636Z" fill="white"/>
<path d="M284.134 102.341C282.429 102.341 280.952 101.966 279.702 101.216C278.452 100.466 277.482 99.4167 276.793 98.0682C276.111 96.7198 275.77 95.144 275.77 93.341C275.77 91.5379 276.111 89.9584 276.793 88.6023C277.482 87.2463 278.452 86.1932 279.702 85.4432C280.952 84.6932 282.429 84.3182 284.134 84.3182C285.838 84.3182 287.315 84.6932 288.565 85.4432C289.815 86.1932 290.781 87.2463 291.463 88.6023C292.152 89.9584 292.497 91.5379 292.497 93.341C292.497 95.144 292.152 96.7198 291.463 98.0682C290.781 99.4167 289.815 100.466 288.565 101.216C287.315 101.966 285.838 102.341 284.134 102.341ZM284.156 99.0455C285.081 99.0455 285.853 98.7917 286.474 98.2841C287.096 97.769 287.558 97.0796 287.861 96.216C288.171 95.3523 288.327 94.3902 288.327 93.3296C288.327 92.2614 288.171 91.2955 287.861 90.4319C287.558 89.5607 287.096 88.8675 286.474 88.3523C285.853 87.8372 285.081 87.5796 284.156 87.5796C283.209 87.5796 282.421 87.8372 281.793 88.3523C281.171 88.8675 280.706 89.5607 280.395 90.4319C280.092 91.2955 279.94 92.2614 279.94 93.3296C279.94 94.3902 280.092 95.3523 280.395 96.216C280.706 97.0796 281.171 97.769 281.793 98.2841C282.421 98.7917 283.209 99.0455 284.156 99.0455Z" fill="white"/>
<path d="M261.009 91.7728V102H256.895V78.7273H260.918V87.5114H261.122C261.531 86.5265 262.164 85.75 263.02 85.1818C263.884 84.6061 264.982 84.3182 266.315 84.3182C267.527 84.3182 268.584 84.572 269.486 85.0796C270.387 85.5871 271.084 86.3296 271.577 87.3068C272.077 88.2841 272.327 89.4773 272.327 90.8864V102H268.213V91.5228C268.213 90.3485 267.91 89.4356 267.304 88.7841C266.706 88.125 265.865 87.7955 264.781 87.7955C264.054 87.7955 263.402 87.9546 262.827 88.2728C262.259 88.5834 261.812 89.0341 261.486 89.625C261.168 90.2159 261.009 90.9318 261.009 91.7728Z" fill="white"/>
<path d="M236.895 108.546V84.5455H240.94V87.4319H241.179C241.391 87.0076 241.69 86.5569 242.077 86.0796C242.463 85.5947 242.986 85.1819 243.645 84.841C244.304 84.4925 245.145 84.3182 246.168 84.3182C247.516 84.3182 248.732 84.6629 249.815 85.3523C250.906 86.0341 251.77 87.0455 252.406 88.3864C253.05 89.7198 253.372 91.3561 253.372 93.2955C253.372 95.2122 253.058 96.841 252.429 98.1819C251.8 99.5228 250.944 100.546 249.861 101.25C248.777 101.955 247.55 102.307 246.179 102.307C245.179 102.307 244.349 102.14 243.69 101.807C243.031 101.474 242.501 101.072 242.099 100.602C241.706 100.125 241.399 99.6743 241.179 99.2501H241.009V108.546H236.895ZM240.929 93.2728C240.929 94.4016 241.088 95.3902 241.406 96.2387C241.732 97.0872 242.198 97.7501 242.804 98.2273C243.418 98.697 244.16 98.9319 245.031 98.9319C245.94 98.9319 246.702 98.6894 247.315 98.2046C247.929 97.7122 248.391 97.0417 248.702 96.1932C249.02 95.3372 249.179 94.3637 249.179 93.2728C249.179 92.1894 249.024 91.2273 248.713 90.3864C248.402 89.5455 247.94 88.8864 247.327 88.4091C246.713 87.9319 245.948 87.6932 245.031 87.6932C244.152 87.6932 243.406 87.9243 242.793 88.3864C242.179 88.8485 241.713 89.4963 241.395 90.3296C241.084 91.1629 240.929 92.144 240.929 93.2728Z" fill="white"/>
<path d="M217.716 102.341C215.966 102.341 214.455 101.977 213.182 101.25C211.917 100.515 210.943 99.4773 210.261 98.1364C209.58 96.7879 209.239 95.2008 209.239 93.3751C209.239 91.5796 209.58 90.0038 210.261 88.6478C210.951 87.2841 211.913 86.2235 213.148 85.466C214.383 84.7008 215.833 84.3182 217.5 84.3182C218.576 84.3182 219.591 84.4925 220.545 84.841C221.508 85.1819 222.356 85.7122 223.091 86.4319C223.833 87.1516 224.417 88.0682 224.841 89.1819C225.265 90.2879 225.477 91.6061 225.477 93.1364V94.3978H211.17V91.6251H221.534C221.527 90.8372 221.356 90.1364 221.023 89.5228C220.689 88.9016 220.224 88.4129 219.625 88.0569C219.034 87.7008 218.345 87.5228 217.557 87.5228C216.716 87.5228 215.977 87.7273 215.341 88.1364C214.705 88.5379 214.208 89.0682 213.852 89.7273C213.504 90.3788 213.326 91.0948 213.318 91.8751V94.2955C213.318 95.3107 213.504 96.1819 213.875 96.9091C214.246 97.6288 214.765 98.1819 215.432 98.5682C216.099 98.947 216.879 99.1364 217.773 99.1364C218.371 99.1364 218.913 99.0531 219.398 98.8864C219.883 98.7122 220.303 98.4584 220.659 98.1251C221.015 97.7917 221.284 97.3788 221.466 96.8864L225.307 97.3182C225.064 98.3334 224.602 99.2197 223.92 99.9773C223.246 100.727 222.383 101.311 221.33 101.727C220.277 102.136 219.072 102.341 217.716 102.341Z" fill="white"/>
<path d="M199.134 102.341C197.391 102.341 195.895 101.958 194.645 101.193C193.402 100.428 192.444 99.3713 191.77 98.0228C191.103 96.6667 190.77 95.1061 190.77 93.341C190.77 91.5682 191.111 90.0038 191.793 88.6478C192.474 87.2841 193.437 86.2235 194.679 85.466C195.929 84.7008 197.406 84.3182 199.111 84.3182C200.527 84.3182 201.781 84.5796 202.872 85.1023C203.971 85.6175 204.846 86.3485 205.497 87.2955C206.149 88.2349 206.52 89.3334 206.611 90.591H202.679C202.52 89.7501 202.141 89.0493 201.543 88.4887C200.952 87.9205 200.16 87.6364 199.168 87.6364C198.327 87.6364 197.588 87.8637 196.952 88.3182C196.315 88.7652 195.819 89.4091 195.463 90.2501C195.115 91.091 194.94 92.0985 194.94 93.2728C194.94 94.4622 195.115 95.4849 195.463 96.341C195.812 97.1894 196.3 97.8447 196.929 98.3069C197.565 98.7614 198.312 98.9887 199.168 98.9887C199.774 98.9887 200.315 98.8751 200.793 98.6478C201.277 98.4129 201.683 98.0758 202.009 97.6364C202.334 97.197 202.558 96.6629 202.679 96.0341H206.611C206.512 97.269 206.149 98.3637 205.52 99.3182C204.891 100.265 204.035 101.008 202.952 101.546C201.868 102.076 200.596 102.341 199.134 102.341Z" fill="white"/>
<path d="M183.176 102V84.5455H187.29V102H183.176ZM185.244 82.0682C184.593 82.0682 184.032 81.8523 183.562 81.4205C183.093 80.9811 182.858 80.4546 182.858 79.8409C182.858 79.2197 183.093 78.6932 183.562 78.2614C184.032 77.822 184.593 77.6023 185.244 77.6023C185.903 77.6023 186.464 77.822 186.926 78.2614C187.396 78.6932 187.631 79.2197 187.631 79.8409C187.631 80.4546 187.396 80.9811 186.926 81.4205C186.464 81.8523 185.903 82.0682 185.244 82.0682Z" fill="white"/>
<path d="M180.33 84.5454L174.114 102H169.568L163.352 84.5454H167.739L171.75 97.5113H171.932L175.955 84.5454H180.33Z" fill="white"/>
<path d="M153.997 102.341C152.247 102.341 150.736 101.977 149.463 101.25C148.198 100.515 147.224 99.4773 146.543 98.1364C145.861 96.7879 145.52 95.2008 145.52 93.3751C145.52 91.5796 145.861 90.0038 146.543 88.6478C147.232 87.2841 148.194 86.2235 149.429 85.466C150.664 84.7008 152.115 84.3182 153.781 84.3182C154.857 84.3182 155.872 84.4925 156.827 84.841C157.789 85.1819 158.637 85.7122 159.372 86.4319C160.115 87.1516 160.698 88.0682 161.122 89.1819C161.546 90.2879 161.759 91.6061 161.759 93.1364V94.3978H147.452V91.6251H157.815C157.808 90.8372 157.637 90.1364 157.304 89.5228C156.971 88.9016 156.505 88.4129 155.906 88.0569C155.315 87.7008 154.626 87.5228 153.838 87.5228C152.997 87.5228 152.259 87.7273 151.622 88.1364C150.986 88.5379 150.49 89.0682 150.134 89.7273C149.785 90.3788 149.607 91.0948 149.599 91.8751V94.2955C149.599 95.3107 149.785 96.1819 150.156 96.9091C150.527 97.6288 151.046 98.1819 151.713 98.5682C152.38 98.947 153.16 99.1364 154.054 99.1364C154.652 99.1364 155.194 99.0531 155.679 98.8864C156.164 98.7122 156.584 98.4584 156.94 98.1251C157.296 97.7917 157.565 97.3788 157.747 96.8864L161.588 97.3182C161.346 98.3334 160.884 99.2197 160.202 99.9773C159.527 100.727 158.664 101.311 157.611 101.727C156.558 102.136 155.353 102.341 153.997 102.341Z" fill="white"/>
<path d="M132.591 102.307C131.22 102.307 129.992 101.955 128.909 101.25C127.826 100.545 126.97 99.5227 126.341 98.1818C125.712 96.8409 125.398 95.2121 125.398 93.2955C125.398 91.3561 125.716 89.7197 126.352 88.3864C126.996 87.0455 127.864 86.0341 128.955 85.3523C130.045 84.6629 131.261 84.3182 132.602 84.3182C133.625 84.3182 134.466 84.4924 135.125 84.8409C135.784 85.1818 136.307 85.5947 136.693 86.0796C137.08 86.5568 137.379 87.0076 137.591 87.4318H137.761V78.7273H141.886V102H137.841V99.25H137.591C137.379 99.6743 137.072 100.125 136.67 100.602C136.269 101.072 135.739 101.474 135.08 101.807C134.42 102.14 133.591 102.307 132.591 102.307ZM133.739 98.9318C134.61 98.9318 135.352 98.697 135.966 98.2273C136.58 97.75 137.045 97.0871 137.364 96.2387C137.682 95.3902 137.841 94.4015 137.841 93.2728C137.841 92.144 137.682 91.1629 137.364 90.3296C137.053 89.4962 136.591 88.8485 135.977 88.3864C135.371 87.9243 134.625 87.6932 133.739 87.6932C132.822 87.6932 132.057 87.9318 131.443 88.4091C130.83 88.8864 130.367 89.5455 130.057 90.3864C129.746 91.2273 129.591 92.1894 129.591 93.2728C129.591 94.3637 129.746 95.3371 130.057 96.1932C130.375 97.0417 130.841 97.7121 131.455 98.2046C132.076 98.6894 132.837 98.9318 133.739 98.9318Z" fill="white"/>
<path d="M114.409 89.1591L110.659 89.5682C110.553 89.1894 110.367 88.8334 110.102 88.5001C109.845 88.1667 109.496 87.8978 109.057 87.6932C108.617 87.4887 108.08 87.3864 107.443 87.3864C106.587 87.3864 105.867 87.572 105.284 87.9432C104.708 88.3144 104.424 88.7955 104.432 89.3864C104.424 89.894 104.61 90.3069 104.989 90.6251C105.375 90.9432 106.011 91.2046 106.898 91.4091L109.875 92.0455C111.527 92.4016 112.754 92.966 113.557 93.7387C114.367 94.5114 114.777 95.5228 114.784 96.7728C114.777 97.8713 114.455 98.841 113.818 99.6819C113.189 100.515 112.314 101.167 111.193 101.636C110.072 102.106 108.784 102.341 107.33 102.341C105.193 102.341 103.474 101.894 102.17 101C100.867 100.099 100.091 98.8447 99.8409 97.2387L103.852 96.8523C104.034 97.6402 104.42 98.2349 105.011 98.6364C105.602 99.0379 106.371 99.2387 107.318 99.2387C108.295 99.2387 109.08 99.0379 109.67 98.6364C110.269 98.2349 110.568 97.7387 110.568 97.1478C110.568 96.6478 110.375 96.2349 109.989 95.9091C109.61 95.5834 109.019 95.3334 108.216 95.1591L105.239 94.5341C103.564 94.1857 102.326 93.5985 101.523 92.7728C100.72 91.9394 100.322 90.8864 100.33 89.6137C100.322 88.5379 100.614 87.6061 101.205 86.8182C101.803 86.0228 102.633 85.4091 103.693 84.9773C104.761 84.5379 105.992 84.3182 107.386 84.3182C109.432 84.3182 111.042 84.7538 112.216 85.6251C113.398 86.4963 114.129 87.6743 114.409 89.1591Z" fill="white"/>
<path d="M92.2698 102V84.5455H96.3835V102H92.2698ZM94.338 82.0682C93.6865 82.0682 93.1259 81.8523 92.6562 81.4205C92.1865 80.9811 91.9517 80.4546 91.9517 79.8409C91.9517 79.2197 92.1865 78.6932 92.6562 78.2614C93.1259 77.822 93.6865 77.6023 94.338 77.6023C94.9971 77.6023 95.5577 77.822 96.0198 78.2614C96.4895 78.6932 96.7244 79.2197 96.7244 79.8409C96.7244 80.4546 96.4895 80.9811 96.0198 81.4205C95.5577 81.8523 94.9971 82.0682 94.338 82.0682Z" fill="white"/>
<path d="M76.7585 91.7728V102H72.6449V78.7273H76.6676V87.5114H76.8722C77.2813 86.5265 77.9138 85.75 78.7699 85.1818C79.6335 84.6061 80.732 84.3182 82.0654 84.3182C83.2775 84.3182 84.3343 84.572 85.2358 85.0796C86.1373 85.5871 86.8343 86.3296 87.3267 87.3068C87.8267 88.2841 88.0767 89.4773 88.0767 90.8864V102H83.9631V91.5228C83.9631 90.3485 83.6601 89.4356 83.054 88.7841C82.4555 88.125 81.6146 87.7955 80.5313 87.7955C79.804 87.7955 79.1525 87.9546 78.5767 88.2728C78.0085 88.5834 77.5616 89.0341 77.2358 89.625C76.9176 90.2159 76.7585 90.9318 76.7585 91.7728Z" fill="white"/>
<path d="M68.8295 84.5455V87.7273H58.7954V84.5455H68.8295ZM61.2727 80.3636H65.3863V96.75C65.3863 97.303 65.4697 97.7273 65.6363 98.0227C65.8106 98.3106 66.0378 98.5076 66.3181 98.6137C66.5984 98.7197 66.909 98.7727 67.25 98.7727C67.5075 98.7727 67.7424 98.7538 67.9545 98.7159C68.1742 98.678 68.3409 98.644 68.4545 98.6137L69.1477 101.83C68.928 101.905 68.6136 101.989 68.2045 102.08C67.803 102.17 67.3106 102.223 66.7272 102.239C65.6969 102.269 64.7689 102.114 63.9431 101.773C63.1174 101.424 62.4621 100.886 61.9772 100.159C61.5 99.4318 61.2651 98.5227 61.2727 97.4318V80.3636Z" fill="white"/>
<path d="M469.997 63.341C468.247 63.341 466.736 62.9773 465.463 62.2501C464.198 61.5152 463.224 60.4773 462.543 59.1364C461.861 57.7879 461.52 56.2008 461.52 54.3751C461.52 52.5796 461.861 51.0038 462.543 49.6478C463.232 48.2841 464.194 47.2235 465.429 46.466C466.664 45.7008 468.115 45.3182 469.781 45.3182C470.857 45.3182 471.872 45.4925 472.827 45.841C473.789 46.1819 474.637 46.7122 475.372 47.4319C476.115 48.1516 476.698 49.0682 477.122 50.1819C477.546 51.2879 477.759 52.6061 477.759 54.1364V55.3978H463.452V52.6251H473.815C473.808 51.8372 473.637 51.1364 473.304 50.5228C472.971 49.9016 472.505 49.4129 471.906 49.0569C471.315 48.7008 470.626 48.5228 469.838 48.5228C468.997 48.5228 468.259 48.7273 467.622 49.1364C466.986 49.5379 466.49 50.0682 466.134 50.7273C465.785 51.3788 465.607 52.0948 465.599 52.8751V55.2955C465.599 56.3107 465.785 57.1819 466.156 57.9091C466.527 58.6288 467.046 59.1819 467.713 59.5682C468.38 59.947 469.16 60.1364 470.054 60.1364C470.652 60.1364 471.194 60.0531 471.679 59.8864C472.164 59.7122 472.584 59.4584 472.94 59.1251C473.296 58.7917 473.565 58.3788 473.747 57.8864L477.588 58.3182C477.346 59.3334 476.884 60.2198 476.202 60.9773C475.527 61.7273 474.664 62.3107 473.611 62.7273C472.558 63.1364 471.353 63.341 469.997 63.341Z" fill="white"/>
<path d="M451.415 63.341C449.672 63.341 448.176 62.9584 446.926 62.1932C445.684 61.4281 444.725 60.3713 444.051 59.0228C443.384 57.6667 443.051 56.1061 443.051 54.341C443.051 52.5682 443.392 51.0038 444.074 49.6478C444.756 48.2841 445.718 47.2235 446.96 46.466C448.21 45.7008 449.688 45.3182 451.392 45.3182C452.809 45.3182 454.063 45.5796 455.153 46.1023C456.252 46.6175 457.127 47.3485 457.778 48.2955C458.43 49.2349 458.801 50.3334 458.892 51.591H454.96C454.801 50.7501 454.422 50.0493 453.824 49.4887C453.233 48.9205 452.441 48.6364 451.449 48.6364C450.608 48.6364 449.869 48.8637 449.233 49.3182C448.597 49.7652 448.1 50.4091 447.744 51.2501C447.396 52.091 447.222 53.0985 447.222 54.2728C447.222 55.4622 447.396 56.4849 447.744 57.341C448.093 58.1894 448.581 58.8448 449.21 59.3069C449.847 59.7614 450.593 59.9887 451.449 59.9887C452.055 59.9887 452.597 59.8751 453.074 59.6478C453.559 59.4129 453.964 59.0758 454.29 58.6364C454.616 58.197 454.839 57.6629 454.96 57.0341H458.892C458.794 58.269 458.43 59.3637 457.801 60.3182C457.172 61.2652 456.316 62.0076 455.233 62.5455C454.15 63.0758 452.877 63.341 451.415 63.341Z" fill="white"/>
<path d="M428.415 52.7728V63.0001H424.301V45.5455H428.233V48.5114H428.438C428.839 47.5341 429.479 46.7576 430.358 46.1819C431.244 45.6061 432.339 45.3182 433.642 45.3182C434.847 45.3182 435.896 45.5758 436.79 46.091C437.691 46.6061 438.388 47.3523 438.881 48.3296C439.381 49.3069 439.627 50.4925 439.619 51.8864V63.0001H435.506V52.5228C435.506 51.3561 435.203 50.4432 434.597 49.7841C433.998 49.1251 433.169 48.7955 432.108 48.7955C431.388 48.7955 430.748 48.9546 430.188 49.2728C429.634 49.5834 429.199 50.0341 428.881 50.6251C428.57 51.216 428.415 51.9319 428.415 52.7728Z" fill="white"/>
<path d="M410.949 63.3523C409.843 63.3523 408.847 63.1554 407.96 62.7614C407.081 62.3599 406.384 61.769 405.869 60.9887C405.362 60.2084 405.108 59.2463 405.108 58.1023C405.108 57.1175 405.29 56.3031 405.653 55.6591C406.017 55.0152 406.513 54.5001 407.142 54.1137C407.771 53.7273 408.479 53.4357 409.267 53.2387C410.062 53.0341 410.884 52.8864 411.733 52.7955C412.756 52.6894 413.585 52.5948 414.222 52.5114C414.858 52.4205 415.32 52.2841 415.608 52.1023C415.903 51.9129 416.051 51.6213 416.051 51.2273V51.1591C416.051 50.3031 415.797 49.6402 415.29 49.1705C414.782 48.7008 414.051 48.466 413.097 48.466C412.089 48.466 411.29 48.6857 410.699 49.1251C410.115 49.5644 409.722 50.0834 409.517 50.6819L405.676 50.1364C405.979 49.0758 406.479 48.1894 407.176 47.4773C407.873 46.7576 408.725 46.2198 409.733 45.8637C410.74 45.5001 411.854 45.3182 413.074 45.3182C413.915 45.3182 414.752 45.4167 415.585 45.6137C416.419 45.8107 417.18 46.1364 417.869 46.591C418.559 47.0379 419.112 47.6478 419.528 48.4205C419.953 49.1932 420.165 50.1591 420.165 51.3182V63.0001H416.21V60.6023H416.074C415.824 61.0872 415.472 61.5417 415.017 61.966C414.57 62.3826 414.006 62.7198 413.324 62.9773C412.65 63.2273 411.858 63.3523 410.949 63.3523ZM412.017 60.3296C412.843 60.3296 413.559 60.1667 414.165 59.841C414.771 59.5076 415.237 59.0682 415.562 58.5228C415.896 57.9773 416.062 57.3826 416.062 56.7387V54.6819C415.934 54.7879 415.714 54.8864 415.403 54.9773C415.1 55.0682 414.759 55.1478 414.381 55.216C414.002 55.2841 413.627 55.3448 413.256 55.3978C412.884 55.4508 412.562 55.4963 412.29 55.5341C411.676 55.6175 411.127 55.7538 410.642 55.9432C410.157 56.1326 409.775 56.3978 409.494 56.7387C409.214 57.072 409.074 57.5038 409.074 58.0341C409.074 58.7917 409.35 59.3637 409.903 59.7501C410.456 60.1364 411.161 60.3296 412.017 60.3296Z" fill="white"/>
<path d="M390.415 52.7728V63H386.301V39.7273H390.324V48.5114H390.528C390.938 47.5265 391.57 46.75 392.426 46.1818C393.29 45.6061 394.388 45.3182 395.722 45.3182C396.934 45.3182 397.991 45.572 398.892 46.0796C399.794 46.5871 400.491 47.3296 400.983 48.3068C401.483 49.2841 401.733 50.4773 401.733 51.8864V63H397.619V52.5228C397.619 51.3485 397.316 50.4356 396.71 49.7841C396.112 49.125 395.271 48.7955 394.188 48.7955C393.46 48.7955 392.809 48.9546 392.233 49.2728C391.665 49.5834 391.218 50.0341 390.892 50.625C390.574 51.2159 390.415 51.9318 390.415 52.7728Z" fill="white"/>
<path d="M375.446 63.341C373.704 63.341 372.207 62.9584 370.957 62.1932C369.715 61.4281 368.757 60.3713 368.082 59.0228C367.416 57.6667 367.082 56.1061 367.082 54.341C367.082 52.5682 367.423 51.0038 368.105 49.6478C368.787 48.2841 369.749 47.2235 370.991 46.466C372.241 45.7008 373.719 45.3182 375.423 45.3182C376.84 45.3182 378.094 45.5796 379.185 46.1023C380.283 46.6175 381.158 47.3485 381.81 48.2955C382.461 49.2349 382.832 50.3334 382.923 51.591H378.991C378.832 50.7501 378.454 50.0493 377.855 49.4887C377.264 48.9205 376.473 48.6364 375.48 48.6364C374.639 48.6364 373.901 48.8637 373.264 49.3182C372.628 49.7652 372.132 50.4091 371.776 51.2501C371.427 52.091 371.253 53.0985 371.253 54.2728C371.253 55.4622 371.427 56.4849 371.776 57.341C372.124 58.1894 372.613 58.8448 373.241 59.3069C373.878 59.7614 374.624 59.9887 375.48 59.9887C376.086 59.9887 376.628 59.8751 377.105 59.6478C377.59 59.4129 377.995 59.0758 378.321 58.6364C378.647 58.197 378.87 57.6629 378.991 57.0341H382.923C382.825 58.269 382.461 59.3637 381.832 60.3182C381.204 61.2652 380.348 62.0076 379.264 62.5455C378.181 63.0758 376.908 63.341 375.446 63.341Z" fill="white"/>
<path d="M352.446 52.7728V63.0001H348.332V45.5455H352.264V48.5114H352.469C352.87 47.5341 353.51 46.7576 354.389 46.1819C355.276 45.6061 356.37 45.3182 357.673 45.3182C358.878 45.3182 359.927 45.5758 360.821 46.091C361.723 46.6061 362.42 47.3523 362.912 48.3296C363.412 49.3069 363.658 50.4925 363.651 51.8864V63.0001H359.537V52.5228C359.537 51.3561 359.234 50.4432 358.628 49.7841C358.029 49.1251 357.2 48.7955 356.139 48.7955C355.419 48.7955 354.779 48.9546 354.219 49.2728C353.666 49.5834 353.23 50.0341 352.912 50.6251C352.601 51.216 352.446 51.9319 352.446 52.7728Z" fill="white"/>
<path d="M337.091 63.341C335.341 63.341 333.83 62.9773 332.557 62.2501C331.292 61.5152 330.318 60.4773 329.636 59.1364C328.955 57.7879 328.614 56.2008 328.614 54.3751C328.614 52.5796 328.955 51.0038 329.636 49.6478C330.326 48.2841 331.288 47.2235 332.523 46.466C333.758 45.7008 335.208 45.3182 336.875 45.3182C337.951 45.3182 338.966 45.4925 339.92 45.841C340.883 46.1819 341.731 46.7122 342.466 47.4319C343.208 48.1516 343.792 49.0682 344.216 50.1819C344.64 51.2879 344.852 52.6061 344.852 54.1364V55.3978H330.545V52.6251H340.909C340.902 51.8372 340.731 51.1364 340.398 50.5228C340.064 49.9016 339.598 49.4129 339 49.0569C338.409 48.7008 337.72 48.5228 336.932 48.5228C336.091 48.5228 335.352 48.7273 334.716 49.1364C334.08 49.5379 333.583 50.0682 333.227 50.7273C332.879 51.3788 332.701 52.0948 332.693 52.8751V55.2955C332.693 56.3107 332.879 57.1819 333.25 57.9091C333.621 58.6288 334.14 59.1819 334.807 59.5682C335.473 59.947 336.254 60.1364 337.148 60.1364C337.746 60.1364 338.288 60.0531 338.773 59.8864C339.258 59.7122 339.678 59.4584 340.034 59.1251C340.39 58.7917 340.659 58.3788 340.841 57.8864L344.682 58.3182C344.439 59.3334 343.977 60.2198 343.295 60.9773C342.621 61.7273 341.758 62.3107 340.705 62.7273C339.652 63.1364 338.447 63.341 337.091 63.341Z" fill="white"/>
<path d="M317.537 59.8182L317.389 61.0682C317.283 62.0228 317.094 62.9925 316.821 63.9773C316.556 64.9698 316.276 65.8826 315.98 66.716C315.685 67.5493 315.446 68.2046 315.264 68.6819H312.491C312.598 68.2198 312.741 67.591 312.923 66.7955C313.113 66.0001 313.294 65.1061 313.469 64.1137C313.643 63.1213 313.76 62.1137 313.821 61.091L313.901 59.8182H317.537Z" fill="white"/>
<path d="M308.324 39.7273V63H304.108V39.7273H308.324Z" fill="white"/>
<path d="M283.94 63H279.44L287.633 39.7273H292.838L301.043 63H296.543L290.327 44.5H290.145L283.94 63ZM284.088 53.875H296.361V57.2614H284.088V53.875Z" fill="white"/>
<path d="M267.418 63.3523C266.312 63.3523 265.315 63.1554 264.429 62.7614C263.55 62.3599 262.853 61.769 262.338 60.9887C261.83 60.2084 261.577 59.2463 261.577 58.1023C261.577 57.1175 261.758 56.3031 262.122 55.6591C262.486 55.0152 262.982 54.5001 263.611 54.1137C264.24 53.7273 264.948 53.4357 265.736 53.2387C266.531 53.0341 267.353 52.8864 268.202 52.7955C269.224 52.6894 270.054 52.5948 270.69 52.5114C271.327 52.4205 271.789 52.2841 272.077 52.1023C272.372 51.9129 272.52 51.6213 272.52 51.2273V51.1591C272.52 50.3031 272.266 49.6402 271.758 49.1705C271.251 48.7008 270.52 48.466 269.565 48.466C268.558 48.466 267.758 48.6857 267.168 49.1251C266.584 49.5644 266.19 50.0834 265.986 50.6819L262.145 50.1364C262.448 49.0758 262.948 48.1894 263.645 47.4773C264.342 46.7576 265.194 46.2198 266.202 45.8637C267.209 45.5001 268.323 45.3182 269.543 45.3182C270.383 45.3182 271.221 45.4167 272.054 45.6137C272.887 45.8107 273.649 46.1364 274.338 46.591C275.027 47.0379 275.58 47.6478 275.997 48.4205C276.421 49.1932 276.633 50.1591 276.633 51.3182V63.0001H272.679V60.6023H272.543C272.293 61.0872 271.94 61.5417 271.486 61.966C271.039 62.3826 270.474 62.7198 269.793 62.9773C269.118 63.2273 268.327 63.3523 267.418 63.3523ZM268.486 60.3296C269.312 60.3296 270.027 60.1667 270.633 59.841C271.24 59.5076 271.705 59.0682 272.031 58.5228C272.365 57.9773 272.531 57.3826 272.531 56.7387V54.6819C272.402 54.7879 272.183 54.8864 271.872 54.9773C271.569 55.0682 271.228 55.1478 270.849 55.216C270.471 55.2841 270.096 55.3448 269.724 55.3978C269.353 55.4508 269.031 55.4963 268.758 55.5341C268.145 55.6175 267.596 55.7538 267.111 55.9432C266.626 56.1326 266.243 56.3978 265.963 56.7387C265.683 57.072 265.543 57.5038 265.543 58.0341C265.543 58.7917 265.819 59.3637 266.372 59.7501C266.925 60.1364 267.63 60.3296 268.486 60.3296Z" fill="white"/>
<path d="M251.153 63.341C249.403 63.341 247.892 62.9773 246.619 62.2501C245.354 61.5152 244.381 60.4773 243.699 59.1364C243.017 57.7879 242.676 56.2008 242.676 54.3751C242.676 52.5796 243.017 51.0038 243.699 49.6478C244.388 48.2841 245.35 47.2235 246.585 46.466C247.82 45.7008 249.271 45.3182 250.938 45.3182C252.013 45.3182 253.028 45.4925 253.983 45.841C254.945 46.1819 255.794 46.7122 256.528 47.4319C257.271 48.1516 257.854 49.0682 258.278 50.1819C258.703 51.2879 258.915 52.6061 258.915 54.1364V55.3978H244.608V52.6251H254.972C254.964 51.8372 254.794 51.1364 254.46 50.5228C254.127 49.9016 253.661 49.4129 253.063 49.0569C252.472 48.7008 251.782 48.5228 250.994 48.5228C250.153 48.5228 249.415 48.7273 248.778 49.1364C248.142 49.5379 247.646 50.0682 247.29 50.7273C246.941 51.3788 246.763 52.0948 246.756 52.8751V55.2955C246.756 56.3107 246.941 57.1819 247.313 57.9091C247.684 58.6288 248.203 59.1819 248.869 59.5682C249.536 59.947 250.316 60.1364 251.21 60.1364C251.809 60.1364 252.35 60.0531 252.835 59.8864C253.32 59.7122 253.741 59.4584 254.097 59.1251C254.453 58.7917 254.722 58.3788 254.903 57.8864L258.744 58.3182C258.502 59.3334 258.04 60.2198 257.358 60.9773C256.684 61.7273 255.82 62.3107 254.767 62.7273C253.714 63.1364 252.509 63.341 251.153 63.341Z" fill="white"/>
<path d="M239.659 50.1591L235.909 50.5682C235.803 50.1894 235.617 49.8334 235.352 49.5001C235.095 49.1667 234.746 48.8978 234.307 48.6932C233.867 48.4887 233.33 48.3864 232.693 48.3864C231.837 48.3864 231.117 48.572 230.534 48.9432C229.958 49.3144 229.674 49.7955 229.682 50.3864C229.674 50.894 229.86 51.3069 230.239 51.6251C230.625 51.9432 231.261 52.2046 232.148 52.4091L235.125 53.0455C236.777 53.4016 238.004 53.966 238.807 54.7387C239.617 55.5114 240.027 56.5228 240.034 57.7728C240.027 58.8713 239.705 59.841 239.068 60.6819C238.439 61.5152 237.564 62.1667 236.443 62.6364C235.322 63.1061 234.034 63.341 232.58 63.341C230.443 63.341 228.724 62.894 227.42 62.0001C226.117 61.0985 225.341 59.8448 225.091 58.2387L229.102 57.8523C229.284 58.6402 229.67 59.2349 230.261 59.6364C230.852 60.0379 231.621 60.2387 232.568 60.2387C233.545 60.2387 234.33 60.0379 234.92 59.6364C235.519 59.2349 235.818 58.7387 235.818 58.1478C235.818 57.6478 235.625 57.2349 235.239 56.9091C234.86 56.5834 234.269 56.3334 233.466 56.1591L230.489 55.5341C228.814 55.1857 227.576 54.5985 226.773 53.7728C225.97 52.9394 225.572 51.8864 225.58 50.6137C225.572 49.5379 225.864 48.6061 226.455 47.8182C227.053 47.0228 227.883 46.4091 228.943 45.9773C230.011 45.5379 231.242 45.3182 232.636 45.3182C234.682 45.3182 236.292 45.7538 237.466 46.6251C238.648 47.4963 239.379 48.6743 239.659 50.1591Z" fill="white"/>
<path d="M205.864 69.5455V45.5455H209.909V48.4319H210.148C210.36 48.0076 210.659 47.5569 211.045 47.0796C211.432 46.5948 211.955 46.1819 212.614 45.841C213.273 45.4925 214.114 45.3182 215.136 45.3182C216.485 45.3182 217.701 45.6629 218.784 46.3523C219.875 47.0341 220.739 48.0455 221.375 49.3864C222.019 50.7198 222.341 52.3561 222.341 54.2955C222.341 56.2122 222.027 57.841 221.398 59.1819C220.769 60.5228 219.913 61.5455 218.83 62.2501C217.746 62.9546 216.519 63.3069 215.148 63.3069C214.148 63.3069 213.318 63.1402 212.659 62.8069C212 62.4735 211.47 62.072 211.068 61.6023C210.674 61.1251 210.367 60.6743 210.148 60.2501H209.977V69.5455H205.864ZM209.898 54.2728C209.898 55.4016 210.057 56.3902 210.375 57.2387C210.701 58.0872 211.167 58.7501 211.773 59.2273C212.386 59.697 213.129 59.9319 214 59.9319C214.909 59.9319 215.67 59.6894 216.284 59.2046C216.898 58.7122 217.36 58.0417 217.67 57.1932C217.989 56.3372 218.148 55.3637 218.148 54.2728C218.148 53.1894 217.992 52.2273 217.682 51.3864C217.371 50.5455 216.909 49.8864 216.295 49.4091C215.682 48.9319 214.917 48.6932 214 48.6932C213.121 48.6932 212.375 48.9243 211.761 49.3864C211.148 49.8485 210.682 50.4963 210.364 51.3296C210.053 52.1629 209.898 53.144 209.898 54.2728Z" fill="white"/>
<path d="M192.511 63.3523C191.405 63.3523 190.409 63.1554 189.523 62.7614C188.644 62.3599 187.947 61.769 187.432 60.9887C186.924 60.2084 186.67 59.2463 186.67 58.1023C186.67 57.1175 186.852 56.3031 187.216 55.6591C187.58 55.0152 188.076 54.5001 188.704 54.1137C189.333 53.7273 190.042 53.4357 190.829 53.2387C191.625 53.0341 192.447 52.8864 193.295 52.7955C194.318 52.6894 195.148 52.5948 195.784 52.5114C196.42 52.4205 196.883 52.2841 197.17 52.1023C197.466 51.9129 197.614 51.6213 197.614 51.2273V51.1591C197.614 50.3031 197.36 49.6402 196.852 49.1705C196.345 48.7008 195.614 48.466 194.659 48.466C193.651 48.466 192.852 48.6857 192.261 49.1251C191.678 49.5644 191.284 50.0834 191.079 50.6819L187.239 50.1364C187.542 49.0758 188.042 48.1894 188.739 47.4773C189.436 46.7576 190.288 46.2198 191.295 45.8637C192.303 45.5001 193.417 45.3182 194.636 45.3182C195.477 45.3182 196.314 45.4167 197.148 45.6137C197.981 45.8107 198.742 46.1364 199.432 46.591C200.121 47.0379 200.674 47.6478 201.091 48.4205C201.515 49.1932 201.727 50.1591 201.727 51.3182V63.0001H197.773V60.6023H197.636C197.386 61.0872 197.034 61.5417 196.579 61.966C196.133 62.3826 195.568 62.7198 194.886 62.9773C194.212 63.2273 193.42 63.3523 192.511 63.3523ZM193.579 60.3296C194.405 60.3296 195.121 60.1667 195.727 59.841C196.333 59.5076 196.799 59.0682 197.125 58.5228C197.458 57.9773 197.625 57.3826 197.625 56.7387V54.6819C197.496 54.7879 197.276 54.8864 196.966 54.9773C196.663 55.0682 196.322 55.1478 195.943 55.216C195.564 55.2841 195.189 55.3448 194.818 55.3978C194.447 55.4508 194.125 55.4963 193.852 55.5341C193.239 55.6175 192.689 55.7538 192.204 55.9432C191.72 56.1326 191.337 56.3978 191.057 56.7387C190.776 57.072 190.636 57.5038 190.636 58.0341C190.636 58.7917 190.913 59.3637 191.466 59.7501C192.019 60.1364 192.723 60.3296 193.579 60.3296Z" fill="white"/>
<path d="M172.102 52.7728V63.0001H167.989V45.5455H171.92V48.5114H172.125C172.527 47.5341 173.167 46.7576 174.045 46.1819C174.932 45.6061 176.027 45.3182 177.33 45.3182C178.534 45.3182 179.583 45.5758 180.477 46.091C181.379 46.6061 182.076 47.3523 182.568 48.3296C183.068 49.3069 183.314 50.4925 183.307 51.8864V63.0001H179.193V52.5228C179.193 51.3561 178.89 50.4432 178.284 49.7841C177.686 49.1251 176.856 48.7955 175.795 48.7955C175.076 48.7955 174.436 48.9546 173.875 49.2728C173.322 49.5834 172.886 50.0341 172.568 50.6251C172.258 51.216 172.102 51.9319 172.102 52.7728Z" fill="white"/>
<path d="M152.108 69.5454C151.547 69.5454 151.028 69.5 150.551 69.409C150.081 69.3257 149.706 69.2272 149.426 69.1136L150.381 65.909C150.979 66.0833 151.513 66.1666 151.983 66.159C152.453 66.1515 152.866 66.0037 153.222 65.7159C153.585 65.4356 153.892 64.9659 154.142 64.3068L154.494 63.3636L148.165 45.5454H152.528L156.551 58.7272H156.733L160.767 45.5454H165.142L158.153 65.1136C157.828 66.0378 157.396 66.8295 156.858 67.4886C156.32 68.1553 155.661 68.6628 154.881 69.0113C154.108 69.3674 153.184 69.5454 152.108 69.5454Z" fill="white"/>
<path d="M141.599 46.125C141.493 45.1325 141.046 44.3598 140.259 43.8068C139.478 43.2538 138.463 42.9772 137.213 42.9772C136.334 42.9772 135.581 43.1098 134.952 43.375C134.323 43.6401 133.842 44 133.509 44.4545C133.175 44.9091 133.005 45.428 132.997 46.0113C132.997 46.4962 133.107 46.9166 133.327 47.2727C133.554 47.6288 133.861 47.9318 134.247 48.1818C134.634 48.4242 135.062 48.6288 135.531 48.7954C136.001 48.9621 136.474 49.1022 136.952 49.2159L139.134 49.7613C140.012 49.9659 140.857 50.2424 141.668 50.5909C142.486 50.9394 143.217 51.3788 143.861 51.9091C144.512 52.4394 145.028 53.0795 145.406 53.8295C145.785 54.5795 145.974 55.4583 145.974 56.4659C145.974 57.8295 145.626 59.0303 144.929 60.0681C144.232 61.0985 143.224 61.9053 141.906 62.4886C140.596 63.0644 139.009 63.3522 137.145 63.3522C135.334 63.3522 133.762 63.0719 132.429 62.5113C131.103 61.9507 130.065 61.1325 129.315 60.0568C128.573 58.981 128.171 57.6704 128.111 56.125H132.259C132.319 56.9356 132.569 57.6098 133.009 58.1477C133.448 58.6856 134.02 59.0871 134.724 59.3522C135.437 59.6174 136.232 59.75 137.111 59.75C138.028 59.75 138.831 59.6136 139.52 59.3409C140.217 59.0606 140.762 58.6742 141.156 58.1818C141.55 57.6818 141.751 57.0985 141.759 56.4318C141.751 55.8257 141.573 55.3257 141.224 54.9318C140.876 54.5303 140.387 54.1969 139.759 53.9318C139.137 53.6591 138.41 53.4166 137.577 53.2045L134.929 52.5227C133.012 52.0303 131.497 51.2841 130.384 50.2841C129.278 49.2765 128.724 47.9394 128.724 46.2727C128.724 44.9015 129.096 43.7007 129.838 42.6704C130.588 41.6401 131.607 40.8409 132.895 40.2727C134.183 39.6969 135.641 39.4091 137.27 39.4091C138.921 39.4091 140.368 39.6969 141.611 40.2727C142.861 40.8409 143.842 41.6325 144.554 42.6477C145.266 43.6553 145.634 44.8144 145.656 46.125H141.599Z" fill="white"/>
<path d="M104.952 69.5454C104.391 69.5454 103.872 69.5 103.395 69.409C102.925 69.3257 102.55 69.2272 102.27 69.1136L103.224 65.909C103.823 66.0833 104.357 66.1666 104.827 66.159C105.296 66.1515 105.709 66.0037 106.065 65.7159C106.429 65.4356 106.736 64.9659 106.986 64.3068L107.338 63.3636L101.009 45.5454H105.372L109.395 58.7272H109.577L113.611 45.5454H117.986L110.997 65.1136C110.671 66.0378 110.24 66.8295 109.702 67.4886C109.164 68.1553 108.505 68.6628 107.724 69.0113C106.952 69.3674 106.027 69.5454 104.952 69.5454Z" fill="white"/>
<path d="M91.6534 63.341C89.9034 63.341 88.3921 62.9773 87.1193 62.2501C85.8542 61.5152 84.8807 60.4773 84.1989 59.1364C83.5171 57.7879 83.1761 56.2008 83.1761 54.3751C83.1761 52.5796 83.5171 51.0038 84.1989 49.6478C84.8883 48.2841 85.8504 47.2235 87.0852 46.466C88.3201 45.7008 89.7708 45.3182 91.4375 45.3182C92.5133 45.3182 93.5284 45.4925 94.483 45.841C95.4451 46.1819 96.2936 46.7122 97.0284 47.4319C97.7708 48.1516 98.3542 49.0682 98.7784 50.1819C99.2027 51.2879 99.4148 52.6061 99.4148 54.1364V55.3978H85.108V52.6251H95.4716C95.464 51.8372 95.2936 51.1364 94.9602 50.5228C94.6269 49.9016 94.161 49.4129 93.5625 49.0569C92.9716 48.7008 92.2822 48.5228 91.4943 48.5228C90.6534 48.5228 89.9148 48.7273 89.2784 49.1364C88.6421 49.5379 88.1458 50.0682 87.7898 50.7273C87.4413 51.3788 87.2633 52.0948 87.2557 52.8751V55.2955C87.2557 56.3107 87.4413 57.1819 87.8125 57.9091C88.1837 58.6288 88.7027 59.1819 89.3693 59.5682C90.036 59.947 90.8163 60.1364 91.7102 60.1364C92.3087 60.1364 92.8504 60.0531 93.3352 59.8864C93.8201 59.7122 94.2405 59.4584 94.5966 59.1251C94.9527 58.7917 95.2216 58.3788 95.4034 57.8864L99.2443 58.3182C99.0019 59.3334 98.5398 60.2198 97.858 60.9773C97.1837 61.7273 96.3201 62.3107 95.2671 62.7273C94.214 63.1364 93.0095 63.341 91.6534 63.341Z" fill="white"/>
<path d="M60.2954 63V39.7273H64.5113V49.5796H75.2954V39.7273H79.5227V63H75.2954V53.1137H64.5113V63H60.2954Z" fill="white"/>
</svg>
