<svg width="723" height="742" viewBox="0 0 723 742" fill="none" xmlns="http://www.w3.org/2000/svg">
<path d="M447.5 0.379883L526.479 85H527V85.5576L605.812 170H606V170.201L685.311 255.177L685 255.466V695.844L685.311 696.177L685 696.466V703H242L0 443V0H447.5V0.379883ZM251.889 693H668.667L598.643 617.975L251.038 616.802L251.889 693ZM241.834 688.144L241.037 616.768L175.192 616.546L241.834 688.144ZM606 611.201L675 685.129V265H606V611.201ZM250.926 606.801L589.279 607.942L519.284 532.947L250.082 531.137L250.926 606.801ZM171.422 606.533L240.926 606.768L240.081 531.069L170.826 530.604L171.422 606.533ZM161.384 601.71L160.825 530.536L94.7236 530.092L161.384 601.71ZM527 526.558L596 600.486V265H527V526.558ZM249.971 521.135L509.891 522.884L440 448L440.094 447.911L249.129 445.779L249.971 521.135ZM170.748 520.603L239.969 521.067L239.128 445.668L170.154 444.898L170.748 520.603ZM90.9551 520.066L160.747 520.535L160.153 444.786L90.6133 444.011L90.9551 520.066ZM447.993 441.907L517 515.844V265H447.796L447.993 441.907ZM80.9336 515.275L80.6123 443.899L13.8047 443.153L80.9336 515.275ZM249.018 435.777L437.988 437.888L437.795 265H247.112L249.018 435.777ZM170.076 434.896L239.016 435.666L237.097 263.732L168.154 189.662L170.076 434.896ZM90.5684 434.01L160.075 434.785L158.068 178.826L89.0879 104.715L90.5684 434.01ZM10 433.111L80.5674 433.898L79.04 93.9189L10 19.7432V433.111ZM242.63 255H437.784L437.7 180H172.823L242.63 255ZM447.785 255H517V180H447.701L447.785 255ZM527 255H596V180H527V255ZM606 255H671.467L606 184.856V255ZM163.516 170H437.689L437.605 95H93.708L163.516 170ZM447.69 170H517V95H447.606L447.69 170ZM527 170H592.134L527 100.214V170ZM84.4004 85H437.595L437.511 10H14.5928L84.4004 85ZM447.595 85H512.8L447.517 15.0527L447.595 85Z" fill="url(#paint0_linear_0_1)"/>
<path d="M484.5 39.3799L563.479 124H564V124.558L642.812 209H643V209.201L722.311 294.177L722 294.466V734.844L722.311 735.177L722 735.466V742H279L37 482V39H484.5V39.3799ZM288.889 732H705.667L635.643 656.975L288.038 655.802L288.889 732ZM278.834 727.144L278.037 655.768L212.192 655.546L278.834 727.144ZM643 650.201L712 724.129V304H643V650.201ZM287.926 645.801L626.279 646.942L556.284 571.947L287.082 570.137L287.926 645.801ZM208.422 645.533L277.926 645.768L277.081 570.069L207.826 569.604L208.422 645.533ZM198.384 640.71L197.825 569.536L131.724 569.092L198.384 640.71ZM564 565.558L633 639.486V304H564V565.558ZM286.971 560.135L546.891 561.884L477 487L477.094 486.911L286.129 484.779L286.971 560.135ZM207.748 559.603L276.969 560.067L276.128 484.668L207.154 483.898L207.748 559.603ZM127.955 559.066L197.747 559.535L197.153 483.786L127.613 483.011L127.955 559.066ZM484.993 480.907L554 554.844V304H484.796L484.993 480.907ZM117.934 554.275L117.612 482.899L50.8047 482.153L117.934 554.275ZM286.018 474.777L474.988 476.888L474.795 304H284.112L286.018 474.777ZM207.076 473.896L276.016 474.666L274.097 302.732L205.154 228.662L207.076 473.896ZM127.568 473.01L197.075 473.785L195.068 217.826L126.088 143.715L127.568 473.01ZM47 472.111L117.567 472.898L116.04 132.919L47 58.7432V472.111ZM279.63 294H474.784L474.7 219H209.823L279.63 294ZM484.785 294H554V219H484.701L484.785 294ZM564 294H633V219H564V294ZM643 294H708.467L643 223.856V294ZM200.516 209H474.689L474.605 134H130.708L200.516 209ZM484.69 209H554V134H484.606L484.69 209ZM564 209H629.134L564 139.214V209ZM121.4 124H474.595L474.511 49H51.5928L121.4 124ZM484.595 124H549.8L484.517 54.0527L484.595 124Z" fill="url(#paint1_linear_0_1)"/>
<defs>
<linearGradient id="paint0_linear_0_1" x1="342.655" y1="0" x2="342.655" y2="703" gradientUnits="userSpaceOnUse">
<stop stop-color="#53E2E6"/>
<stop offset="0.533654" stop-color="#C95A9D"/>
<stop offset="1" stop-color="#F5C356"/>
</linearGradient>
<linearGradient id="paint1_linear_0_1" x1="379.655" y1="39" x2="379.655" y2="742" gradientUnits="userSpaceOnUse">
<stop stop-color="#53E2E6"/>
<stop offset="0.533654" stop-color="#C95A9D"/>
<stop offset="1" stop-color="#F5C356"/>
</linearGradient>
</defs>
</svg>
