<svg width="226" height="48" viewBox="0 0 226 48" fill="none" xmlns="http://www.w3.org/2000/svg">
<path d="M63.1265 0C64.5945 0 65.7845 1.24582 65.7845 2.78261C65.7845 4.3194 64.5945 5.56522 63.1265 5.56522C61.7682 5.56522 60.6479 4.49843 60.4882 3.12147L44.774 5.13995C44.6442 6.54985 43.5095 7.65217 42.1287 7.65217C41.6749 7.65217 41.2478 7.53298 40.874 7.3231L35.3818 15.019C35.8557 15.5215 36.1483 16.2119 36.1483 16.9739C36.1483 17.3789 36.0654 17.7636 35.9168 18.1107L42.1816 24.3194C42.4178 24.2474 42.6676 24.2087 42.926 24.2087C44.394 24.2087 45.584 25.4545 45.584 26.9913C45.584 27.9967 45.0745 28.8775 44.3112 29.3664L47.2477 42.4567C47.6284 42.5067 47.9841 42.6412 48.2971 42.8414L56.7294 28.3682C56.0942 27.8597 55.6843 27.0583 55.6843 26.1565C55.6843 24.6197 56.8743 23.3739 58.3422 23.3739C59.8102 23.3739 61.0002 24.6197 61.0002 26.1565C61.0002 27.6656 59.8526 28.8939 58.4213 28.9376L49.44 44.3533C49.5248 44.6253 49.5709 44.9157 49.5709 45.2174C49.5709 46.7542 48.3809 48 46.913 48C45.445 48 44.255 46.7542 44.255 45.2174C44.255 44.1998 44.7768 43.3098 45.5556 42.8246L42.6239 29.7558C41.8685 29.6664 41.2092 29.2456 40.7816 28.6355L32.6514 32.7596C32.6786 32.9195 32.6929 33.0841 32.6929 33.2522C32.6929 34.789 31.5029 36.0348 30.0349 36.0348C28.567 36.0348 27.377 34.789 27.377 33.2522C27.377 32.81 27.4757 32.392 27.651 32.0208L16.6869 19.0187C16.2131 19.4766 15.5801 19.7565 14.8846 19.7565C14.7779 19.7565 14.6727 19.7496 14.5693 19.7368L9.72868 33.3884C10.2824 33.8984 10.6318 34.6456 10.6318 35.4783C10.6318 35.6018 10.6239 35.7234 10.609 35.8427L21.3579 41.3295C21.8275 40.892 22.4462 40.6261 23.1242 40.6261C24.5922 40.6261 25.7822 41.8719 25.7822 43.4087C25.7822 44.9455 24.5922 46.1913 23.1242 46.1913C21.6563 46.1913 20.4663 44.9455 20.4663 43.4087C20.4663 43.238 20.481 43.0708 20.5091 42.9086L9.83821 37.4613C9.35845 37.9557 8.70026 38.2609 7.97388 38.2609C6.50593 38.2609 5.31592 37.0151 5.31592 35.4783C5.31592 33.9415 6.50593 32.6957 7.97388 32.6957C8.0262 32.6957 8.07817 32.6974 8.12975 32.7005L13.0075 18.944C12.5251 18.4403 12.2266 17.7436 12.2266 16.9739C12.2266 15.4371 13.4166 14.1913 14.8846 14.1913C16.3525 14.1913 17.5425 15.4371 17.5425 16.9739C17.5425 17.0778 17.5368 17.1803 17.5262 17.2812L28.8799 30.7452C29.2292 30.5685 29.621 30.4696 30.0349 30.4696C30.7157 30.4696 31.3365 30.7377 31.8067 31.1783L40.2702 26.8851C40.2901 26.3305 40.4648 25.8174 40.7508 25.392L34.7369 19.4318C34.3651 19.6389 33.9408 19.7565 33.4903 19.7565C32.0223 19.7565 30.8323 18.5107 30.8323 16.9739C30.8323 15.4371 32.0223 14.1913 33.4903 14.1913C33.5958 14.1913 33.6999 14.1979 33.8022 14.2105L39.6854 5.96671C39.5473 5.63006 39.4707 5.25918 39.4707 4.86956C39.4707 3.33277 40.6607 2.08696 42.1287 2.08696C43.0691 2.08696 43.8956 2.59823 44.3681 3.36984L60.911 1.24484C61.3871 0.494557 62.2017 0 63.1265 0Z" fill="url(#paint0_linear_190_49)"/>
<path d="M55.1527 16.3478C55.1527 17.7694 54.0519 18.9217 52.6941 18.9217C51.3362 18.9217 50.2355 17.7694 50.2355 16.3478C50.2355 14.9263 51.3362 13.7739 52.6941 13.7739C54.0519 13.7739 55.1527 14.9263 55.1527 16.3478Z" fill="url(#paint1_linear_190_49)"/>
<path d="M39.7365 38.4696C39.7365 39.5069 38.9332 40.3478 37.9424 40.3478C36.9515 40.3478 36.1483 39.5069 36.1483 38.4696C36.1483 37.4322 36.9515 36.5913 37.9424 36.5913C38.9332 36.5913 39.7365 37.4322 39.7365 38.4696Z" fill="url(#paint2_linear_190_49)"/>
<path d="M19.1373 31.7913C19.1373 32.8286 18.3341 33.6696 17.3432 33.6696C16.3523 33.6696 15.5491 32.8286 15.5491 31.7913C15.5491 30.754 16.3523 29.913 17.3432 29.913C18.3341 29.913 19.1373 30.754 19.1373 31.7913Z" fill="url(#paint3_linear_190_49)"/>
<path d="M3.58825 22.0522C3.58825 23.0895 2.78499 23.9304 1.79412 23.9304C0.803256 23.9304 0 23.0895 0 22.0522C0 21.0148 0.803256 20.1739 1.79412 20.1739C2.78499 20.1739 3.58825 21.0148 3.58825 22.0522Z" fill="url(#paint4_linear_190_49)"/>
<path d="M24.1874 9.94784C24.1874 10.9852 23.3842 11.8261 22.3933 11.8261C21.4024 11.8261 20.5992 10.9852 20.5992 9.94784C20.5992 8.91051 21.4024 8.06958 22.3933 8.06958C23.3842 8.06958 24.1874 8.91051 24.1874 9.94784Z" fill="url(#paint5_linear_190_49)"/>
<path d="M89.1001 21.2507C89.0362 20.5476 88.7518 20.0011 88.2468 19.6112C87.7482 19.2148 87.0355 19.0167 86.1087 19.0167C85.495 19.0167 84.9837 19.0966 84.5746 19.2564C84.1655 19.4162 83.8587 19.6367 83.6541 19.918C83.4496 20.1928 83.3441 20.5092 83.3377 20.8672C83.3249 21.1612 83.3825 21.4201 83.5103 21.6438C83.6445 21.8675 83.8363 22.0657 84.0856 22.2383C84.3413 22.4045 84.6481 22.5515 85.006 22.6793C85.364 22.8072 85.7667 22.919 86.2141 23.0149L87.9016 23.3984C88.8732 23.6094 89.7298 23.8906 90.4712 24.2422C91.2191 24.5938 91.8455 25.0124 92.3505 25.4982C92.8619 25.984 93.2486 26.5433 93.5107 27.1761C93.7727 27.8089 93.907 28.5185 93.9134 29.3047C93.907 30.5447 93.5938 31.609 92.9737 32.4975C92.3537 33.386 91.462 34.0668 90.2987 34.5398C89.1417 35.0128 87.745 35.2493 86.1087 35.2493C84.4659 35.2493 83.0341 35.0032 81.8132 34.511C80.5923 34.0188 79.6431 33.271 78.9656 32.2674C78.288 31.2638 77.9396 29.995 77.9205 28.4609H82.4652C82.5036 29.0938 82.6729 29.6211 82.9734 30.043C83.2738 30.4648 83.6861 30.7844 84.2102 31.0018C84.7408 31.2191 85.3544 31.3278 86.0511 31.3278C86.6903 31.3278 87.2337 31.2415 87.6811 31.0689C88.1349 30.8963 88.4833 30.6566 88.7262 30.3498C88.9691 30.043 89.0938 29.6914 89.1001 29.2951C89.0938 28.9244 88.9787 28.608 88.755 28.3459C88.5313 28.0774 88.1861 27.8473 87.7195 27.6555C87.2592 27.4574 86.6712 27.2752 85.9553 27.109L83.9034 26.6296C82.2031 26.2397 80.864 25.6101 79.886 24.7408C78.908 23.8651 78.4222 22.6825 78.4286 21.1932C78.4222 19.9787 78.7482 18.9144 79.4066 18.0004C80.065 17.0863 80.9759 16.3736 82.1392 15.8622C83.3026 15.3509 84.6289 15.0952 86.1183 15.0952C87.6396 15.0952 88.9595 15.354 90.0781 15.8718C91.2031 16.3832 92.0756 17.1023 92.6957 18.0291C93.3157 18.956 93.6321 20.0298 93.6449 21.2507H89.1001ZM99.1772 40.5227C98.6147 40.5227 98.0842 40.478 97.5856 40.3885C97.087 40.3054 96.6587 40.1935 96.3008 40.0529L97.3363 36.6491C97.7965 36.8026 98.212 36.892 98.5827 36.9176C98.9599 36.9432 99.2827 36.8825 99.5511 36.7354C99.826 36.5948 100.037 36.3423 100.184 35.978L100.366 35.5369L95.131 20.2727H100.04L102.754 30.7812H102.907L105.659 20.2727H110.597L105.045 36.4094C104.777 37.2148 104.396 37.9244 103.904 38.538C103.418 39.158 102.789 39.6438 102.015 39.9954C101.248 40.3469 100.302 40.5227 99.1772 40.5227ZM117.083 26.6009V35H112.394V20.2727H116.853V22.9766H117.016C117.342 22.0753 117.898 21.369 118.684 20.8576C119.47 20.3398 120.407 20.081 121.493 20.081C122.529 20.081 123.427 20.3143 124.188 20.7809C124.955 21.2411 125.549 21.8867 125.971 22.7177C126.399 23.5423 126.61 24.5075 126.604 25.6133V35H121.915V26.5337C121.922 25.7156 121.714 25.0763 121.292 24.6161C120.877 24.1559 120.298 23.9258 119.557 23.9258C119.064 23.9258 118.63 24.0344 118.253 24.2518C117.882 24.4627 117.594 24.7663 117.39 25.1626C117.192 25.5589 117.089 26.0384 117.083 26.6009ZM133.658 35.2493C132.719 35.2493 131.884 35.0927 131.156 34.7795C130.434 34.4599 129.861 33.9805 129.44 33.3413C129.024 32.6957 128.816 31.8871 128.816 30.9155C128.816 30.0973 128.96 29.407 129.248 28.8445C129.535 28.282 129.932 27.8249 130.437 27.4734C130.942 27.1218 131.523 26.8565 132.182 26.6776C132.84 26.4922 133.543 26.3675 134.291 26.3036C135.128 26.2269 135.803 26.147 136.314 26.0639C136.826 25.9744 137.196 25.8498 137.426 25.69C137.663 25.5238 137.781 25.2905 137.781 24.9901V24.9421C137.781 24.4499 137.612 24.0696 137.273 23.8011C136.934 23.5327 136.477 23.3984 135.902 23.3984C135.282 23.3984 134.783 23.5327 134.406 23.8011C134.029 24.0696 133.789 24.4403 133.687 24.9134L129.363 24.7599C129.491 23.8651 129.82 23.0661 130.35 22.3629C130.887 21.6534 131.622 21.0973 132.556 20.6946C133.495 20.2855 134.623 20.081 135.94 20.081C136.88 20.081 137.746 20.1928 138.539 20.4165C139.331 20.6339 140.022 20.9535 140.61 21.3754C141.198 21.7908 141.652 22.3022 141.971 22.9094C142.297 23.5167 142.46 24.2102 142.46 24.9901V35H138.05V32.9482H137.935C137.672 33.4467 137.337 33.8686 136.928 34.2138C136.525 34.5589 136.049 34.8178 135.499 34.9904C134.956 35.163 134.342 35.2493 133.658 35.2493ZM135.106 32.1811C135.611 32.1811 136.065 32.0788 136.468 31.8743C136.877 31.6697 137.203 31.3885 137.446 31.0305C137.688 30.6662 137.81 30.2443 137.81 29.7649V28.3651C137.676 28.4354 137.513 28.4993 137.321 28.5568C137.136 28.6143 136.931 28.6687 136.707 28.7198C136.484 28.771 136.253 28.8157 136.017 28.854C135.78 28.8924 135.554 28.9276 135.336 28.9595C134.895 29.0298 134.518 29.1385 134.205 29.2855C133.898 29.4325 133.661 29.6243 133.495 29.8608C133.335 30.0909 133.256 30.3658 133.256 30.6854C133.256 31.1712 133.428 31.5419 133.773 31.7976C134.125 32.0533 134.569 32.1811 135.106 32.1811ZM145.327 40.5227V20.2727H149.968V22.7944H150.111C150.303 22.3469 150.575 21.9155 150.926 21.5C151.284 21.0845 151.738 20.7457 152.288 20.4837C152.844 20.2152 153.509 20.081 154.282 20.081C155.305 20.081 156.261 20.3494 157.149 20.8864C158.044 21.4233 158.766 22.2511 159.316 23.3697C159.866 24.4883 160.141 25.9137 160.141 27.646C160.141 29.3143 159.875 30.7109 159.345 31.8359C158.821 32.9609 158.111 33.8047 157.216 34.3672C156.328 34.9297 155.34 35.2109 154.253 35.2109C153.512 35.2109 152.87 35.0895 152.326 34.8466C151.783 34.6037 151.326 34.2841 150.955 33.8878C150.591 33.4915 150.31 33.0664 150.111 32.6126H150.016V40.5227H145.327ZM149.92 27.6364C149.92 28.429 150.025 29.1193 150.236 29.7074C150.453 30.2955 150.763 30.7525 151.166 31.0785C151.575 31.3981 152.064 31.5579 152.633 31.5579C153.208 31.5579 153.697 31.3981 154.1 31.0785C154.503 30.7525 154.806 30.2955 155.011 29.7074C155.222 29.1193 155.327 28.429 155.327 27.6364C155.327 26.8437 155.222 26.1566 155.011 25.5749C154.806 24.9933 154.503 24.5426 154.1 24.223C153.704 23.9034 153.215 23.7436 152.633 23.7436C152.058 23.7436 151.569 23.9002 151.166 24.2134C150.763 24.5266 150.453 24.9741 150.236 25.5558C150.025 26.1374 149.92 26.831 149.92 27.6364ZM175.455 24.7695L171.15 24.8846C171.105 24.5778 170.984 24.3061 170.786 24.0696C170.588 23.8267 170.329 23.6381 170.009 23.5039C169.696 23.3633 169.331 23.293 168.916 23.293C168.373 23.293 167.909 23.4016 167.526 23.619C167.149 23.8363 166.963 24.1303 166.97 24.5011C166.963 24.7887 167.078 25.038 167.315 25.2489C167.558 25.4599 167.989 25.6293 168.609 25.7571L171.447 26.294C172.917 26.5753 174.01 27.0419 174.726 27.6939C175.449 28.3459 175.813 29.2088 175.819 30.2827C175.813 31.2926 175.513 32.1715 174.918 32.9194C174.33 33.6673 173.525 34.2489 172.502 34.6644C171.479 35.0735 170.309 35.2781 168.993 35.2781C166.89 35.2781 165.231 34.8466 164.017 33.9837C162.808 33.1143 162.118 31.951 161.945 30.4936L166.577 30.3786C166.679 30.9155 166.944 31.3246 167.372 31.6058C167.801 31.8871 168.347 32.0277 169.012 32.0277C169.613 32.0277 170.102 31.9158 170.479 31.6921C170.856 31.4684 171.048 31.1712 171.054 30.8004C171.048 30.468 170.901 30.2028 170.613 30.0046C170.325 29.8001 169.875 29.6403 169.261 29.5252L166.692 29.0362C165.215 28.7678 164.116 28.2724 163.393 27.5501C162.671 26.8214 162.313 25.8945 162.319 24.7695C162.313 23.7852 162.575 22.9446 163.106 22.2479C163.636 21.5447 164.39 21.0078 165.368 20.6371C166.346 20.2663 167.5 20.081 168.83 20.081C170.824 20.081 172.396 20.4996 173.547 21.337C174.698 22.168 175.334 23.3121 175.455 24.7695ZM185.012 35.2781C183.472 35.2781 182.142 34.9744 181.023 34.3672C179.911 33.7536 179.055 32.881 178.454 31.7496C177.859 30.6119 177.562 29.2599 177.562 27.6939C177.562 26.1726 177.862 24.843 178.463 23.7053C179.064 22.5611 179.911 21.6726 181.004 21.0398C182.097 20.4006 183.385 20.081 184.868 20.081C185.916 20.081 186.875 20.244 187.745 20.57C188.614 20.896 189.365 21.3786 189.998 22.0178C190.631 22.657 191.123 23.4464 191.474 24.386C191.826 25.3192 192.002 26.3899 192.002 27.598V28.7678H179.202V26.0447H187.639C187.633 25.5462 187.514 25.1019 187.284 24.712C187.054 24.3221 186.738 24.0185 186.335 23.8011C185.939 23.5774 185.482 23.4656 184.964 23.4656C184.44 23.4656 183.97 23.5838 183.555 23.8203C183.139 24.0504 182.81 24.3668 182.567 24.7695C182.324 25.1658 182.196 25.6165 182.184 26.1214V28.8924C182.184 29.4933 182.302 30.0206 182.538 30.4744C182.775 30.9219 183.11 31.2702 183.545 31.5195C183.98 31.7688 184.497 31.8935 185.098 31.8935C185.514 31.8935 185.891 31.8359 186.23 31.7209C186.568 31.6058 186.859 31.4364 187.102 31.2127C187.345 30.989 187.527 30.7141 187.649 30.3881L191.954 30.5128C191.775 31.478 191.382 32.3185 190.774 33.0344C190.174 33.744 189.384 34.2969 188.406 34.6932C187.428 35.0831 186.297 35.2781 185.012 35.2781ZM198.644 35H193.543L200.168 15.3636H206.487L213.112 35H208.011L203.4 20.3111H203.246L198.644 35ZM197.963 27.272H208.625V30.8771H197.963V27.272ZM219.972 15.3636V35H215.226V15.3636H219.972Z" fill="white"/>
<defs>
<linearGradient id="paint0_linear_190_49" x1="35.5502" y1="0" x2="35.5502" y2="48" gradientUnits="userSpaceOnUse">
<stop stop-color="#C261D1"/>
<stop offset="1" stop-color="#6184D1"/>
</linearGradient>
<linearGradient id="paint1_linear_190_49" x1="52.6941" y1="13.7739" x2="52.6941" y2="18.9217" gradientUnits="userSpaceOnUse">
<stop stop-color="#C261D1"/>
<stop offset="1" stop-color="#6184D1"/>
</linearGradient>
<linearGradient id="paint2_linear_190_49" x1="37.9424" y1="36.5913" x2="37.9424" y2="40.3478" gradientUnits="userSpaceOnUse">
<stop stop-color="#C261D1"/>
<stop offset="1" stop-color="#6184D1"/>
</linearGradient>
<linearGradient id="paint3_linear_190_49" x1="17.3432" y1="29.913" x2="17.3432" y2="33.6696" gradientUnits="userSpaceOnUse">
<stop stop-color="#C261D1"/>
<stop offset="1" stop-color="#6184D1"/>
</linearGradient>
<linearGradient id="paint4_linear_190_49" x1="1.79412" y1="20.1739" x2="1.79412" y2="23.9304" gradientUnits="userSpaceOnUse">
<stop stop-color="#C261D1"/>
<stop offset="1" stop-color="#6184D1"/>
</linearGradient>
<linearGradient id="paint5_linear_190_49" x1="22.3933" y1="8.06958" x2="22.3933" y2="11.8261" gradientUnits="userSpaceOnUse">
<stop stop-color="#C261D1"/>
<stop offset="1" stop-color="#6184D1"/>
</linearGradient>
</defs>
</svg>
