<svg width="214" height="214" viewBox="0 0 214 214" fill="none" xmlns="http://www.w3.org/2000/svg">
<path d="M107 0C166.094 0 214 47.9055 214 107C214 166.094 166.094 214 107 214C47.9055 214 0 166.094 0 107C0 47.9055 47.9055 0 107 0ZM107 18C57.8467 18 18 57.8467 18 107C18 156.153 57.8467 196 107 196C156.153 196 196 156.153 196 107C196 57.8467 156.153 18 107 18ZM175.834 111.272C173.384 146.877 143.727 175 107.5 175C83.8564 175 63.0104 163.021 50.7002 144.802L175.834 111.272ZM107.5 38C131.744 38 153.046 50.5956 165.221 69.5996L39.0693 103.401C40.6895 67.008 70.7069 38 107.5 38Z" fill="white"/>
</svg>
