<svg width="664" height="164" viewBox="0 0 664 164" fill="currentColor" xmlns="http://www.w3.org/2000/svg">
<path d="M82 0C127.287 0 164 36.7127 164 82C164 127.287 127.287 164 82 164C36.7127 164 0 127.287 0 82C0 36.7127 36.7127 0 82 0ZM82 18C46.6538 18 18 46.6538 18 82C18 117.346 46.6538 146 82 146C117.346 146 146 117.346 146 82C146 46.6538 117.346 18 82 18ZM134.752 85.2744C132.874 112.56 110.146 134.111 82.3838 134.111C64.2647 134.111 48.2895 124.932 38.8555 110.97L134.752 85.2744ZM338.091 63.8184C340.909 63.8184 343.515 64.2121 345.909 65C348.303 65.7727 350.409 66.9092 352.228 68.4092C354.046 69.894 355.523 71.7201 356.659 73.8867C357.795 76.0533 358.5 78.5306 358.772 81.3184H347.409C347.258 80.1518 346.947 79.0985 346.478 78.1592C346.008 77.2198 345.386 76.4167 344.613 75.75C343.841 75.0834 342.924 74.576 341.863 74.2275C340.818 73.864 339.659 73.6817 338.387 73.6816C336.129 73.6816 334.182 74.2349 332.546 75.3408C330.925 76.4469 329.675 78.0458 328.796 80.1367C327.932 82.2276 327.5 84.7579 327.5 87.7275C327.5 90.8183 327.94 93.4092 328.818 95.5C329.712 97.5757 330.962 99.1435 332.568 100.204C334.19 101.25 336.106 101.772 338.318 101.772C339.56 101.772 340.689 101.614 341.704 101.296C342.734 100.978 343.636 100.515 344.409 99.9092C345.197 99.288 345.841 98.5379 346.341 97.6592C346.856 96.7653 347.212 95.7578 347.409 94.6367L358.772 94.7041C358.575 96.7647 357.978 98.7959 356.978 100.796C355.993 102.796 354.636 104.621 352.909 106.272C351.182 107.909 349.076 109.212 346.591 110.182C344.121 111.151 341.288 111.637 338.091 111.637C333.879 111.637 330.106 110.712 326.772 108.863C323.455 107 320.833 104.288 318.909 100.728C316.985 97.167 316.022 92.8335 316.022 87.7275C316.022 82.6063 317 78.2647 318.954 74.7041C320.909 71.1436 323.553 68.4393 326.887 66.5908C330.22 64.7425 333.955 63.8184 338.091 63.8184ZM474.29 63.8184C478.457 63.8184 482.214 64.7424 485.562 66.5908C488.926 68.4392 491.593 71.1437 493.562 74.7041C495.532 78.2647 496.517 82.6063 496.517 87.7275C496.517 92.8486 495.532 97.1895 493.562 100.75C491.593 104.311 488.926 107.015 485.562 108.863C482.214 110.712 478.457 111.637 474.29 111.637C470.108 111.637 466.343 110.704 462.994 108.841C459.646 106.977 456.986 104.273 455.017 100.728C453.062 97.167 452.085 92.8335 452.085 87.7275C452.085 82.6063 453.062 78.2647 455.017 74.7041C456.986 71.1436 459.646 68.4393 462.994 66.5908C466.343 64.7423 470.108 63.8184 474.29 63.8184ZM209.75 64.4541C213.235 64.4541 216.242 65.1364 218.772 66.5C221.318 67.8485 223.28 69.7349 224.659 72.1592C226.038 74.5682 226.728 77.3714 226.728 80.5684C226.728 83.7804 226.022 86.591 224.613 89C223.219 91.3938 221.227 93.2502 218.637 94.5684C216.046 95.8865 212.97 96.5459 209.409 96.5459H201.772V111H190.522V64.4541H209.75ZM243.522 101.863H262.887V111H232.272V64.4541H243.522V101.863ZM313.699 111H301.608L298.54 101.228H282.465L279.403 111H267.312L283.017 64.4541H297.994L313.699 111ZM397.665 73.5908H376.46V83.1367H396.006V92.2959H376.46V101.863H397.665V111H365.21V64.4541H397.665V73.5908ZM415.96 83.1367H434.301V64.4541H445.528V111H434.301V92.2959H415.96V111H404.71V64.4541H415.96V83.1367ZM514.335 101.863H533.699V111H503.085V64.4541H514.335V101.863ZM556.705 64.4541C561.447 64.4541 565.531 65.3864 568.955 67.25C572.394 69.0985 575.046 71.7653 576.909 75.25C578.773 78.7196 579.705 82.871 579.705 87.7041C579.705 92.5525 578.773 96.7193 576.909 100.204C575.061 103.689 572.417 106.364 568.978 108.228C565.538 110.076 561.455 111 556.728 111H539.523V64.4541H556.705ZM618.728 73.5908H597.523V83.1367H617.068V92.2959H597.523V101.863H618.728V111H586.273V64.4541H618.728V73.5908ZM645 64.4541C648.485 64.4541 651.493 65.0832 654.023 66.3408C656.569 67.5832 658.53 69.3711 659.909 71.7041C661.288 74.0222 661.977 76.7725 661.978 79.9541C661.978 83.1812 661.273 85.9241 659.864 88.1816C658.465 90.4079 656.483 92.1101 653.919 93.291L663.568 111H651.296L642.785 95.0684H637.023V111H625.773V64.4541H645ZM474.29 73.6816C472.063 73.6816 470.146 74.2201 468.54 75.2959C466.934 76.3717 465.699 77.955 464.835 80.0459C463.987 82.1367 463.562 84.6975 463.562 87.7275C463.563 90.7577 463.987 93.3183 464.835 95.4092C465.699 97.5001 466.934 99.0834 468.54 100.159C470.146 101.235 472.063 101.772 474.29 101.772C476.532 101.772 478.449 101.235 480.04 100.159C481.646 99.0834 482.873 97.5 483.722 95.4092C484.585 93.3183 485.017 90.7577 485.017 87.7275C485.017 84.6974 484.585 82.1367 483.722 80.0459C482.873 77.9552 481.646 76.3717 480.04 75.2959C478.449 74.2202 476.532 73.6817 474.29 73.6816ZM550.773 101.409H556.296C558.902 101.409 561.106 100.97 562.909 100.091C564.727 99.1969 566.099 97.75 567.023 95.75C567.963 93.7349 568.432 91.0525 568.432 87.7041C568.432 84.3558 567.963 81.6889 567.023 79.7041C566.084 77.7044 564.697 76.2655 562.864 75.3867C561.046 74.4928 558.803 74.0459 556.137 74.0459H550.773V101.409ZM285.143 92.6816H295.856L290.676 76.1816H290.312L285.143 92.6816ZM201.772 87.6816H207.318C209.015 87.6816 210.432 87.3868 211.568 86.7959C212.72 86.205 213.591 85.3789 214.182 84.3184C214.773 83.2427 215.068 81.9925 215.068 80.5684C215.068 79.129 214.773 77.8863 214.182 76.8408C213.591 75.7804 212.72 74.9624 211.568 74.3867C210.417 73.811 209 73.5225 207.318 73.5225H201.772V87.6816ZM637.023 86.2041H642.568C644.265 86.2041 645.682 85.9852 646.818 85.5459C647.97 85.0914 648.841 84.409 649.432 83.5C650.023 82.5758 650.318 81.3935 650.318 79.9541C650.318 78.5149 650.022 77.326 649.432 76.3867C648.841 75.4322 647.97 74.7197 646.818 74.25C645.667 73.7652 644.25 73.5225 642.568 73.5225H637.023V86.2041ZM82.3838 29.1211C100.963 29.1213 117.287 38.7738 126.617 53.3369L29.9414 79.2412C31.1835 51.3514 54.1876 29.1211 82.3838 29.1211Z" fill="white"/>
</svg>
