<svg width="238" height="238" viewBox="0 0 238 238" fill="none" xmlns="http://www.w3.org/2000/svg">
<rect width="238" height="238" fill="#B37ABC"/>
<path d="M119 37C164.287 37 201 73.7127 201 119C201 164.287 164.287 201 119 201C73.7127 201 37 164.287 37 119C37 73.7127 73.7127 37 119 37ZM119 55C83.6538 55 55 83.6538 55 119C55 154.346 83.6538 183 119 183C154.346 183 183 154.346 183 119C183 83.6538 154.346 55 119 55ZM171.752 122.274C169.874 149.56 147.146 171.111 119.384 171.111C101.265 171.111 85.2895 161.932 75.8555 147.97L171.752 122.274ZM119.384 66.1211C137.963 66.1213 154.287 75.7738 163.617 90.3369L66.9414 116.241C68.1835 88.3514 91.1876 66.1211 119.384 66.1211Z" fill="#383838"/>
</svg>
