<svg width="66" height="48" viewBox="0 0 66 48" fill="none" xmlns="http://www.w3.org/2000/svg">
<path d="M63.127 0C64.5946 0.000232149 65.784 1.24575 65.7842 2.78223C65.7842 4.31888 64.5947 5.5652 63.127 5.56543C61.7686 5.56543 60.648 4.49806 60.4883 3.12109L44.7744 5.13965C44.6446 6.54947 43.5096 7.65221 42.1289 7.65234C41.6752 7.65234 41.2477 7.53311 40.874 7.32324L35.3818 15.0186C35.8557 15.521 36.1484 16.2118 36.1484 16.9736C36.1484 17.3785 36.0655 17.7633 35.917 18.1104L42.1816 24.3193C42.4178 24.2474 42.6675 24.209 42.9258 24.209C44.3937 24.209 45.5839 25.4545 45.584 26.9912C45.584 27.9965 45.0747 28.8772 44.3115 29.3662L47.248 42.457C47.6286 42.5072 47.984 42.6416 48.2969 42.8418L56.7295 28.3682C56.0943 27.8597 55.6846 27.058 55.6846 26.1562C55.6847 24.6197 56.8741 23.3743 58.3418 23.374C59.8097 23.374 60.9999 24.6196 61 26.1562C61 27.6654 59.8523 28.8937 58.4209 28.9375L49.4404 44.3535C49.5252 44.6255 49.5713 44.9162 49.5713 45.2178C49.5711 46.7544 48.3809 47.9999 46.9131 48C45.4453 48 44.2551 46.7544 44.2549 45.2178C44.2549 44.2002 44.7769 43.3094 45.5557 42.8242L42.624 29.7559C41.8686 29.6664 41.2088 29.2459 40.7812 28.6357L32.6514 32.7598C32.6786 32.9195 32.6933 33.084 32.6934 33.252C32.6934 34.7887 31.503 36.035 30.0352 36.0352C28.5672 36.0352 27.377 34.7887 27.377 33.252C27.377 32.8099 27.4761 32.3917 27.6514 32.0205L16.6865 19.0186C16.2128 19.4763 15.5802 19.7568 14.8848 19.7568C14.7781 19.7568 14.6727 19.7501 14.5693 19.7373L9.72852 33.3887C10.2822 33.8986 10.6318 34.6458 10.6318 35.4785C10.6318 35.602 10.6243 35.7236 10.6094 35.8428L21.3574 41.3291C21.8269 40.8916 22.446 40.626 23.124 40.626C24.592 40.626 25.7822 41.8724 25.7822 43.4092C25.782 44.9457 24.5918 46.1914 23.124 46.1914C21.6563 46.1913 20.4661 44.9457 20.4658 43.4092C20.4658 43.2384 20.4807 43.0705 20.5088 42.9082L9.83789 37.4609C9.35813 37.9553 8.70002 38.2607 7.97363 38.2607C6.50588 38.2606 5.31654 37.0151 5.31641 35.4785C5.31641 33.9418 6.50579 32.6955 7.97363 32.6953C8.02596 32.6953 8.0783 32.6971 8.12988 32.7002L13.0078 18.9443C12.5254 18.4406 12.2266 17.7433 12.2266 16.9736C12.2267 15.437 13.4169 14.1914 14.8848 14.1914C16.3525 14.1915 17.5428 15.437 17.543 16.9736C17.543 17.0775 17.537 17.1803 17.5264 17.2812L28.8799 30.7451C29.2291 30.5684 29.6213 30.4697 30.0352 30.4697C30.7158 30.4698 31.3364 30.7382 31.8066 31.1787L40.2705 26.8848C40.2904 26.3303 40.4651 25.8169 40.751 25.3916L34.7373 19.4316C34.3655 19.6387 33.9408 19.7568 33.4902 19.7568C32.0223 19.7568 30.832 18.5104 30.832 16.9736C30.8322 15.437 32.0224 14.1914 33.4902 14.1914C33.5956 14.1914 33.6996 14.1984 33.8018 14.2109L39.6855 5.9668C39.5474 5.63015 39.4707 5.25875 39.4707 4.86914C39.4709 3.33254 40.6611 2.08691 42.1289 2.08691C43.0693 2.087 43.8957 2.59858 44.3682 3.37012L60.9111 1.24512C61.3872 0.494837 62.2021 0 63.127 0ZM37.9424 36.5918C38.9332 36.5918 39.7363 37.4324 39.7363 38.4697C39.7362 39.507 38.9332 40.3477 37.9424 40.3477C36.9516 40.3477 36.1485 39.507 36.1484 38.4697C36.1484 37.4324 36.9515 36.5918 37.9424 36.5918ZM17.3428 29.9131C18.3335 29.9131 19.1375 30.7538 19.1377 31.791C19.1377 32.8284 18.3336 33.6699 17.3428 33.6699C16.3521 33.6697 15.5488 32.8282 15.5488 31.791C15.549 30.754 16.3522 29.9133 17.3428 29.9131ZM1.79395 20.1738C2.78468 20.1738 3.58767 21.0146 3.58789 22.0518C3.58789 23.0891 2.78481 23.9307 1.79395 23.9307C0.80316 23.9306 0 23.089 0 22.0518C0.000218198 21.0147 0.803295 20.1739 1.79395 20.1738ZM52.6943 13.7734C54.052 13.7736 55.1523 14.9263 55.1523 16.3477C55.1523 17.7691 54.0521 18.9217 52.6943 18.9219C51.3365 18.9219 50.2354 17.7692 50.2354 16.3477C50.2354 14.9262 51.3365 13.7734 52.6943 13.7734ZM22.3936 8.06934C23.3843 8.06948 24.1875 8.91099 24.1875 9.94824C24.1873 10.9853 23.3842 11.826 22.3936 11.8262C21.4028 11.8262 20.5998 10.9854 20.5996 9.94824C20.5996 8.91091 21.4027 8.06934 22.3936 8.06934Z" fill="url(#paint0_linear_19_233)"/>
<defs>
<linearGradient id="paint0_linear_19_233" x1="22.3933" y1="8.06958" x2="22.3933" y2="39.5" gradientUnits="userSpaceOnUse">
<stop stop-color="#96569F"/>
<stop offset="1" stop-color="#58569F"/>
</linearGradient>
</defs>
</svg>
